<?xml version="1.0" encoding="UTF-8"?>
<svg width="25px" height="24px" viewBox="0 0 25 24" version="1.1" xmlns="http://www.w3.org/2000/svg" xmlns:xlink="http://www.w3.org/1999/xlink">
    <!-- Generator: Sketch 62 (91390) - https://sketch.com -->
    <title>noun_Present_1826980</title>
    <desc>Created with Sketch.</desc>
    <g id="Final-version" stroke="none" stroke-width="1" fill="none" fill-rule="evenodd">
        <g id="Group-10" transform="translate(-1196.000000, -592.000000)" fill="#333F48" fill-rule="nonzero">
            <g id="Group-3-Copy" transform="translate(1168.000000, 571.000000)">
                <g id="noun_Present_1826980" transform="translate(28.000000, 21.000000)">
                    <g id="Group">
                        <path d="M22.6439591,24 L13.7931034,24 L13.7931034,14.5714286 L23.2758621,14.5714286 L23.2758621,23.3714286 C23.2758621,23.7184 22.9926437,24 22.6439591,24 Z" id="Path"></path>
                        <path d="M2.35604087,24 C2.00735632,24 1.72413793,23.7184 1.72413793,23.3714286 L1.72413793,14.5714286 L11.2068966,14.5714286 L11.2068966,24 L2.35604087,24 Z" id="Path"></path>
                        <path d="M24.3819595,12 L13.7931034,12 L13.7931034,6.85714286 L24.3819595,6.85714286 C24.7229947,6.85714286 25,7.12045046 25,7.44488303 L25,11.4122598 C25,11.7364312 24.7229947,12 24.3819595,12 Z" id="Path"></path>
                        <path d="M0.618040518,12 C0.277005265,12 0,11.7364312 0,11.4122598 L0,7.44488303 C0,7.12045046 0.277005265,6.85714286 0.618040518,6.85714286 L11.2068966,6.85714286 L11.2068966,12 L0.618040518,12 L0.618040518,12 Z" id="Path"></path>
                        <path d="M7.12938699,6.85714286 L17.0101705,6.85714286 C18.5191039,6.1482539 19.7068039,5.04127247 20.2737683,3.96898196 C20.8047925,2.96550458 20.8301457,1.99728681 20.3333902,1.22584047 C19.8040376,0.446716626 18.8311433,0 17.6660105,0 C15.5263117,0 13.0823745,1.4885815 12.069918,4.69749119 C11.057183,1.4885815 8.61324581,0 6.47354703,0 C5.30813557,0 4.33551989,0.446716626 3.79474445,1.24347028 C3.30941174,1.99757116 3.33476494,2.96550458 3.86578914,3.96869761 C4.4327536,5.04098812 5.62045358,6.1482539 7.12938699,6.85714286 Z M17.6657318,1.59947869 C18.2909251,1.59947869 18.8205563,1.80563372 19.0345261,2.12041113 C19.2501676,2.45623056 19.0086157,2.9936554 18.8946656,3.20919404 C18.1218109,4.66877166 15.7586696,6.17384556 13.3467721,5.995557 C13.9619355,2.98142828 15.9536942,1.59947869 17.6657318,1.59947869 Z M5.09305127,2.13804093 C5.31900123,1.80563372 5.84835379,1.59947869 6.47354703,1.59947869 C8.18558466,1.59947869 10.1773433,2.98142828 10.7925067,5.99527265 C10.6554323,6.00550932 10.5186364,6.0103433 10.381562,6.0103433 C10.3807262,6.0103433 10.3807262,6.0103433 10.3807262,6.0103433 C8.09336587,6.0103433 5.97316955,4.58574094 5.24433466,3.20862534 C5.13066316,2.9936554 4.88911123,2.45623056 5.09305127,2.13804093 Z" id="Shape"></path>
                    </g>
                </g>
            </g>
        </g>
    </g>
</svg>